{"accessors" : [{"bufferView" : 0, "byteOffset" : 0, "componentType" : 5123, "count" : 14400, "type" : "SCALAR", "max" : [14399], "min" : [0]}, {"bufferView" : 1, "byteOffset" : 0, "componentType" : 5126, "count" : 14400, "type" : "VEC3", "max" : [42.99250030517578, 21.124996185302734, 76.28901672363281], "min" : [-42.8134651184082, -21.124990463256836, 1.4639239311218262], "name" : "POSITION"}, {"bufferView" : 1, "byteOffset" : 12, "componentType" : 5126, "count" : 14400, "type" : "VEC3", "max" : [0.999379575252533, 0.9999886751174927, 1.0000035762786865], "min" : [-0.9996214509010315, -0.9999886751174927, -1.0000044107437134], "name" : "NORMAL"}, {"bufferView" : 1, "byteOffset" : 24, "componentType" : 5126, "count" : 14400, "type" : "VEC2", "max" : [1.2006042003631592, -0.4462776482105255], "min" : [0.019999999552965164, -0.9845886826515198], "name" : "TEXCOORD_0"}], "asset" : {"generator" : "Aspose.3D 22.1", "version" : "2.0"}, "buffers" : [{"uri" : "data:application/octet-stream;base64,", "byteLength" : 489608}], "bufferViews" : [{"buffer" : 0, "byteOffset" : 0, "byteLength" : 28800, "target" : 34963}, {"buffer" : 0, "byteOffset" : 28804, "byteLength" : 460800, "byteStride" : 32, "target" : 34962}], "materials" : [{"name" : "", "pbrMetallicRoughness" : {"baseColorFactor" : [0, 0, 0, 1], "metallicFactor" : 0, "roughnessFactor" : 0}, "emissiveFactor" : [0, 0, 0], "alphaMode" : "OPAQUE", "doubleSided" : false}], "meshes" : [{"primitives" : [{"attributes" : {"POSITION" : 1, "NORMAL" : 2, "TEXCOORD_0" : 3}, "indices" : 0, "material" : 0, "mode" : 4}], "name" : ""}], "nodes" : [{"matrix" : [1, 0, 0, 0, 0, 2.220446049250313E-16, -1, 0, 0, 1, 2.220446049250313E-16, 0, -0.7653045654296875, 0, -0.2551021575927821, 1], "mesh" : 0, "name" : "BASE HEART"}], "scene" : 0, "scenes" : [{"nodes" : [0]}]}